<?xml version="1.0" encoding="UTF-8"?>
<svg width="981px" height="904px" viewBox="0 0 981 904" version="1.1" xmlns="http://www.w3.org/2000/svg" xmlns:xlink="http://www.w3.org/1999/xlink">
    <!-- Generator: Sketch 50 (54983) - http://www.bohemiancoding.com/sketch -->
    <title>c09b1eadea0efc7914f73ac698494b5e</title>
    <desc>Created with Sketch.</desc>
    <defs></defs>
    <g id="Page-1" stroke="none" stroke-width="1" fill="none" fill-rule="evenodd">
        <g id="c09b1eadea0efc7914f73ac698494b5e" fill="#FFFFFF" fill-rule="nonzero">
            <path d="M903.4,76.8 L888.1,76.8 L888.1,46.2 C888.1,20.9 867.5,0.3 842.2,0.3 C816.9,0.3 796.3,20.9 796.3,46.2 L796.3,76.8 L183.8,76.8 L183.8,46.2 C183.8,20.9 163.2,0.3 137.9,0.3 C112.6,0.3 92,20.9 92,46.2 L92,76.8 L76.6,76.8 C34.4,76.8 0,111.1 0,153.4 L0,827.2 C0,869.4 34.3,903.8 76.6,903.8 L903.5,903.8 C945.7,903.8 980.1,869.5 980.1,827.2 L980.1,153.4 C980,111.2 945.7,76.8 903.4,76.8 Z M826.9,46.2 C826.9,37.8 833.8,30.9 842.2,30.9 C850.6,30.9 857.5,37.8 857.5,46.2 L857.5,92.1 C857.5,92.1 857.5,92.1 857.5,92.1 C857.5,92.1 857.5,92.1 857.5,92.1 L857.5,138 C857.5,146.4 850.6,153.3 842.2,153.3 C833.8,153.3 826.9,146.4 826.9,138 L826.9,46.2 Z M137.8,30.9 C146.2,30.9 153.1,37.8 153.1,46.2 L153.1,138.1 C153.1,146.5 146.2,153.4 137.8,153.4 C129.4,153.4 122.5,146.5 122.5,138.1 L122.5,92.2 C122.5,92.2 122.5,92.2 122.5,92.2 C122.5,92.2 122.5,92.2 122.5,92.2 L122.5,46.2 C122.5,37.8 129.4,30.9 137.8,30.9 Z M903.4,873.1 L76.6,873.1 C51.3,873.1 30.7,852.5 30.7,827.2 L30.7,245.3 L765.7,245.3 C774.2,245.3 781,238.4 781,230 C781,221.5 774.1,214.7 765.7,214.7 L30.7,214.7 L30.7,153.4 C30.7,128.1 51.3,107.5 76.6,107.5 L91.9,107.5 L91.9,138.1 C91.9,163.4 112.5,184 137.8,184 C163.1,184 183.7,163.4 183.7,138.1 L183.7,107.5 L796.2,107.5 L796.2,138.1 C796.2,163.4 816.8,184 842.1,184 C867.4,184 888,163.4 888,138.1 L888,107.5 L903.3,107.5 C928.6,107.5 949.2,128.1 949.2,153.4 L949.2,214.7 L918.6,214.7 C910.1,214.7 903.3,221.6 903.3,230 C903.3,238.5 910.2,245.3 918.6,245.3 L949.2,245.3 L949.2,827.2 C949.4,852.5 928.8,873.1 903.4,873.1 Z" id="Shape"></path>
            <path d="M505.3,429 C513.8,429 520.6,435.9 520.6,444.3 C520.6,452.7 513.8,459.6 505.3,459.6 L474.7,459.6 C466.3,459.6 459.4,452.8 459.4,444.3 C459.4,435.9 466.2,429 474.7,429 L505.3,429 Z M857.5,214.7 C866,214.7 872.8,221.5 872.8,230 C872.8,238.4 866,245.3 857.5,245.3 L826.9,245.3 C818.5,245.3 811.6,238.5 811.6,230 C811.6,221.6 818.4,214.7 826.9,214.7 L857.5,214.7 Z M505.3,505.6 C513.8,505.6 520.6,512.5 520.6,520.9 C520.6,529.3 513.8,536.2 505.3,536.2 L474.7,536.2 C466.3,536.2 459.4,529.3 459.4,520.9 C459.4,512.5 466.2,505.6 474.7,505.6 L505.3,505.6 Z M505.3,582.2 C513.8,582.2 520.6,589.1 520.6,597.5 C520.6,605.9 513.8,612.8 505.3,612.8 L474.7,612.8 C466.3,612.8 459.4,605.9 459.4,597.5 C459.4,589.1 466.2,582.2 474.7,582.2 L505.3,582.2 Z M505.3,658.7 C513.8,658.7 520.6,665.6 520.6,674 C520.6,682.4 513.8,689.3 505.3,689.3 L474.7,689.3 C466.3,689.3 459.4,682.4 459.4,674 C459.4,665.6 466.2,658.7 474.7,658.7 L505.3,658.7 Z M612.5,429 C621,429 627.8,435.9 627.8,444.3 C627.8,452.7 621,459.6 612.5,459.6 L581.9,459.6 C573.5,459.6 566.6,452.8 566.6,444.3 C566.6,435.9 573.4,429 581.9,429 L612.5,429 Z M612.5,505.6 C621,505.6 627.8,512.5 627.8,520.9 C627.8,529.3 621,536.2 612.5,536.2 L581.9,536.2 C573.5,536.2 566.6,529.3 566.6,520.9 C566.6,512.5 573.4,505.6 581.9,505.6 L612.5,505.6 Z M612.5,582.2 C621,582.2 627.8,589.1 627.8,597.5 C627.8,605.9 621,612.8 612.5,612.8 L581.9,612.8 C573.5,612.8 566.6,605.9 566.6,597.5 C566.6,589.1 573.4,582.2 581.9,582.2 L612.5,582.2 Z M398.1,429 C406.6,429 413.4,435.9 413.4,444.3 C413.4,452.7 406.6,459.6 398.1,459.6 L367.5,459.6 C359.1,459.6 352.2,452.8 352.2,444.3 C352.2,435.9 359,429 367.5,429 L398.1,429 Z M612.5,658.7 C621,658.7 627.8,665.6 627.8,674 C627.8,682.4 621,689.3 612.5,689.3 L581.9,689.3 C573.5,689.3 566.6,682.4 566.6,674 C566.6,665.6 573.4,658.7 581.9,658.7 L612.5,658.7 Z M398.1,505.6 C406.6,505.6 413.4,512.5 413.4,520.9 C413.4,529.3 406.6,536.2 398.1,536.2 L367.5,536.2 C359.1,536.2 352.2,529.3 352.2,520.9 C352.2,512.5 359,505.6 367.5,505.6 L398.1,505.6 Z M398.1,582.2 C406.6,582.2 413.4,589.1 413.4,597.5 C413.4,605.9 406.6,612.8 398.1,612.8 L367.5,612.8 C359.1,612.8 352.2,605.9 352.2,597.5 C352.2,589.1 359,582.2 367.5,582.2 L398.1,582.2 Z M398.1,658.7 C406.6,658.7 413.4,665.6 413.4,674 C413.4,682.4 406.6,689.3 398.1,689.3 L367.5,689.3 C359.1,689.3 352.2,682.4 352.2,674 C352.2,665.6 359,658.7 367.5,658.7 L398.1,658.7 Z M290.9,429 C299.4,429 306.3,435.9 306.2,444.3 C306.2,452.7 299.4,459.6 290.9,459.6 L260.3,459.6 C251.9,459.6 245,452.8 245,444.3 C245,435.9 251.8,429 260.3,429 L290.9,429 Z M290.9,505.6 C299.4,505.6 306.2,512.5 306.2,520.9 C306.2,529.3 299.4,536.2 290.9,536.2 L260.3,536.2 C251.9,536.2 245,529.3 245,520.9 C245,512.5 251.8,505.6 260.3,505.6 L290.9,505.6 Z M290.9,582.2 C299.4,582.2 306.2,589.1 306.2,597.5 C306.2,605.9 299.4,612.8 290.9,612.8 L260.3,612.8 C251.9,612.8 245,605.9 245,597.5 C245,589.1 251.8,582.2 260.3,582.2 L290.9,582.2 Z M290.9,658.7 C299.4,658.7 306.2,665.6 306.2,674 C306.2,682.4 299.4,689.3 290.9,689.3 L260.3,689.3 C251.9,689.3 245,682.4 245,674 C245,665.6 251.8,658.7 260.3,658.7 L290.9,658.7 Z M290.9,735.3 C299.4,735.3 306.2,742.2 306.2,750.6 C306.2,759 299.4,765.9 290.9,765.9 L260.3,765.9 C251.9,765.9 245,759 245,750.6 C245,742.2 251.8,735.3 260.3,735.3 L290.9,735.3 Z M719.7,429 C728.1,429 735,435.9 735,444.3 C735,452.7 728.2,459.6 719.7,459.6 L689.1,459.6 C680.7,459.6 673.8,452.8 673.8,444.3 C673.8,435.9 680.6,429 689.1,429 L719.7,429 Z M719.7,505.6 C728.1,505.6 735,512.5 735,520.9 C735,529.3 728.2,536.2 719.7,536.2 L689.1,536.2 C680.7,536.2 673.8,529.3 673.8,520.9 C673.8,512.5 680.6,505.6 689.1,505.6 L719.7,505.6 Z M719.7,582.2 C728.1,582.2 735,589.1 735,597.5 C735,605.9 728.2,612.8 719.7,612.8 L689.1,612.8 C680.7,612.8 673.8,605.9 673.8,597.5 C673.8,589.1 680.6,582.2 689.1,582.2 L719.7,582.2 Z M719.7,658.7 C728.1,658.7 735,665.6 735,674 C735,682.4 728.2,689.3 719.7,689.3 L689.1,689.3 C680.7,689.3 673.8,682.4 673.8,674 C673.8,665.6 680.6,658.7 689.1,658.7 L719.7,658.7 Z M826.9,352.5 C835.3,352.5 842.2,359.3 842.2,367.8 C842.2,376.2 835.4,383.1 826.9,383.1 L796.3,383.1 C787.9,383.1 781,376.3 781,367.8 C781,359.4 787.8,352.5 796.3,352.5 L826.9,352.5 Z M826.9,429 C835.3,429 842.2,435.9 842.2,444.3 C842.2,452.7 835.4,459.6 826.9,459.6 L796.3,459.6 C787.9,459.6 781,452.8 781,444.3 C781,435.9 787.8,429 796.3,429 L826.9,429 Z M826.9,505.6 C835.3,505.6 842.2,512.5 842.2,520.9 C842.2,529.3 835.4,536.2 826.9,536.2 L796.3,536.2 C787.9,536.2 781,529.3 781,520.9 C781,512.5 787.8,505.6 796.3,505.6 L826.9,505.6 Z M826.9,582.2 C835.3,582.2 842.2,589.1 842.2,597.5 C842.2,605.9 835.4,612.8 826.9,612.8 L796.3,612.8 C787.9,612.8 781,605.9 781,597.5 C781,589.1 787.8,582.2 796.3,582.2 L826.9,582.2 Z M826.9,658.7 C835.3,658.7 842.2,665.6 842.2,674 C842.2,682.4 835.4,689.3 826.9,689.3 L796.3,689.3 C787.9,689.3 781,682.4 781,674 C781,665.6 787.8,658.7 796.3,658.7 L826.9,658.7 Z M183.8,429 C192.2,429 199.1,435.9 199.1,444.3 C199.1,452.7 192.3,459.6 183.8,459.6 L153.2,459.6 C144.8,459.6 137.9,452.8 137.9,444.3 C137.9,435.9 144.7,429 153.2,429 L183.8,429 Z M183.8,505.6 C192.2,505.6 199.1,512.5 199.1,520.9 C199.1,529.3 192.3,536.2 183.8,536.2 L153.2,536.2 C144.8,536.2 137.9,529.3 137.9,520.9 C137.9,512.5 144.7,505.6 153.2,505.6 L183.8,505.6 Z M183.8,582.2 C192.2,582.2 199.1,589.1 199.1,597.5 C199.1,605.9 192.3,612.8 183.8,612.8 L153.2,612.8 C144.8,612.8 137.9,605.9 137.9,597.5 C137.9,589.1 144.7,582.2 153.2,582.2 L183.8,582.2 Z M183.8,658.7 C192.2,658.7 199.1,665.6 199.1,674 C199.1,682.4 192.3,689.3 183.8,689.3 L153.2,689.3 C144.8,689.3 137.9,682.4 137.9,674 C137.9,665.6 144.7,658.7 153.2,658.7 L183.8,658.7 Z M183.8,735.3 C192.2,735.3 199.1,742.2 199.1,750.6 C199.1,759 192.3,765.9 183.8,765.9 L153.2,765.9 C144.8,765.9 137.9,759 137.9,750.6 C137.9,742.2 144.7,735.3 153.2,735.3 L183.8,735.3 Z" id="Shape"></path>
        </g>
    </g>
</svg>