<?xml version="1.0" encoding="UTF-8"?>
<svg width="980px" height="824px" viewBox="0 0 980 824" version="1.1" xmlns="http://www.w3.org/2000/svg" xmlns:xlink="http://www.w3.org/1999/xlink">
    <!-- Generator: Sketch 50 (54983) - http://www.bohemiancoding.com/sketch -->
    <title>medal</title>
    <desc>Created with Sketch.</desc>
    <defs></defs>
    <g id="Page-1" stroke="none" stroke-width="1" fill="none" fill-rule="evenodd">
        <g id="medal" transform="translate(490.000000, 412.050000) scale(-1, 1) rotate(-180.000000) translate(-490.000000, -412.050000) translate(0.000000, 0.100000)" fill="#E4E3E4" fill-rule="nonzero">
            <path d="M447,820.9 C341.4,801.9 261.6,724.1 238.8,617.7 C234,596.3 233.8,541.9 238.4,520.7 C240.6,509.5 240.8,505.7 239,503.7 C237.6,502.3 183.4,412.3 118.2,303.7 C16.2,133.5 0,105.3 0,98.7 C0.2,87.3 9.2,78.1 20.4,78.1 C22.8,78.1 75.6,94.9 137.4,115.5 L250,153.1 L326.6,76.5 L403.2,0.1 L411.8,0.1 C429,0.1 427.8,-3.1 460.2,126.7 C476,190.1 489.4,242.1 490,242.1 C490.6,242.1 504,190.1 519.8,126.5 C552.2,-3.1 551,0.1 568.2,0.1 L576.8,0.1 L653.4,76.5 L730,153.1 L842.6,115.5 C904.4,94.9 957.2,78.1 959.6,78.1 C971.2,78.1 980,87.7 980,100.3 C980,104.9 948.8,158.3 861.8,303.7 C796.6,412.3 742.2,502.5 741,504.1 C738.8,506.5 739,509.9 741.6,521.1 C746.2,541.5 746,595.7 741.2,617.7 C718.2,724.3 637.6,802.9 532.2,820.9 C509,824.9 469,824.9 447,820.9 Z M533.6,777.3 C554.8,772.7 581.6,762.1 600.2,750.9 C632,731.9 664.8,695.9 681.6,661.9 C736.8,548.7 681.2,411.5 562.6,368.1 C517.8,351.9 462.2,351.9 417.4,368.1 C312,406.7 254.2,520.3 285.2,627.7 C308.4,708.1 378.4,768.3 462.6,780.1 C479.6,782.5 515.8,781.1 533.6,777.3 Z M267.6,442.1 C302.2,378.9 371,330.3 444.4,316.9 C454,315.1 462,312.7 462,311.9 C462,309.9 402.4,70.9 400.8,66.3 C400.2,64.3 376.6,86.7 332.4,130.7 C269.8,193.1 264.2,198.1 257.8,198.1 C254,198.1 210.6,184.7 161.2,168.1 C111.6,151.7 71,138.5 70.6,138.9 C69.6,139.9 258.2,454.1 259.8,454.1 C260.4,454.1 264,448.7 267.6,442.1 Z M816,296.5 C867.8,210.3 910,139.5 910,139.1 C910,138.7 869.8,151.9 820.6,168.3 C765.2,186.7 728,198.1 723,198.1 C715.4,198.1 713.6,196.7 647.6,130.7 C603.2,86.3 579.8,64.3 579.2,66.3 C577.6,70.7 518,309.9 518,311.9 C518,312.7 526,315.1 535.8,316.9 C569.6,323.1 603.6,336.9 632.8,356.5 C663,376.5 695.8,411.9 712.4,442.1 C716,448.7 719.6,453.9 720.6,453.5 C721.4,453.3 764.4,382.7 816,296.5 Z" id="Shape"></path>
            <path d="M462,715.3 C430.6,708.5 408.4,696.5 385.8,674.1 C342.6,631.3 329.4,572.5 350.6,516.1 C364.6,479.1 388.8,452.7 425.8,434.1 C454.2,419.9 494.6,415.9 526.8,424.1 C574.8,436.3 614,472.3 630.8,519.7 C655.6,589.3 623.2,668.7 557.2,701.1 C547.2,706.1 533.6,711.5 527,713.3 C510.2,717.7 478,718.7 462,715.3 Z M524.2,669.3 C576.4,651.5 606.8,594.7 593,541.5 C584.2,507.9 557.4,479.1 524.4,467.7 C505.8,461.3 472.6,461.3 455,467.9 C393.8,490.3 366.4,559.5 395.8,617.7 C418.8,663.5 475,685.9 524.2,669.3 Z" id="Shape"></path>
        </g>
    </g>
</svg>