<?xml version="1.0" encoding="UTF-8" standalone="no"?>
<svg width="170px" height="198px" viewBox="0 0 170 198" version="1.1" xmlns="http://www.w3.org/2000/svg" xmlns:xlink="http://www.w3.org/1999/xlink">
    <!-- Generator: Sketch 49.3 (51167) - http://www.bohemiancoding.com/sketch -->
    <title>Flag</title>
    <desc>Created with Sketch.</desc>
    <defs></defs>
    <g id="Page-1" stroke="none" stroke-width="1" fill="none" fill-rule="evenodd">
        <g id="Artboard" transform="translate(-552.000000, -1162.000000)" fill-rule="nonzero">
            <g id="Flag" transform="translate(552.000000, 1162.000000)">
                <path d="M160.465774,66.1026207 C144.590179,68.7053203 118.69256,69.4111372 101.486607,36.9435624 C83.0389881,2.04974228 53.2389881,0.991017016 35.8113095,4.16719281 C27.341369,5.71116715 21,12.7693356 21,19.6069362 L21,106.334181 C26.0110119,108.231064 31.3767857,106.245954 32.7514881,105.981272 C33.10625,105.893045 33.4166667,105.848932 33.8157738,105.760705 C44.9020833,103.334459 56.6092262,102.187507 85.6110119,116.039162 C121.974107,133.375789 153.813988,101.437576 166.141964,79.2043459 C167.028869,77.6603715 170,70.2934082 170,63.2352398 C165.698512,64.9997819 160.465774,66.1026207 160.465774,66.1026207 Z" id="Shape" fill="#FFCB05"></path>
                <path d="M94.3359375,64.1536127 C76.8403925,50.0499742 66.0104167,34 48.5494792,34 C28.3723958,34 21,41.4362193 21,44.1990606 L21,80.0178629 C29.9244792,80.0178629 29.5364583,77.4157303 45.8333333,77.4157303 C76.0989583,77.4157303 79.6541344,103 111.408854,103 C125.765625,103 152.151042,99.8988764 170,64.1536127 C137.794271,92.5337079 112.572917,78.8549415 94.3359375,64.1536127 Z" id="Shape-Copy" fill="#000000"></path>
                <path d="M10.5,0 L3.5,0 C1.575,0 0,1.59107143 0,3.53571429 L0,194.464286 C0,196.408929 1.575,198 3.5,198 L10.5,198 C12.425,198 14,196.408929 14,194.464286 L14,3.53571429 C14,1.59107143 12.425,0 10.5,0 Z" id="Shape" fill="#000000"></path>
            </g>
        </g>
    </g>
</svg>