<?xml version="1.0" encoding="UTF-8" standalone="no"?>
<svg width="158px" height="198px" viewBox="0 0 158 198" version="1.1" xmlns="http://www.w3.org/2000/svg" xmlns:xlink="http://www.w3.org/1999/xlink">
    <!-- Generator: Sketch 49.3 (51167) - http://www.bohemiancoding.com/sketch -->
    <title>Hand</title>
    <desc>Created with Sketch.</desc>
    <defs></defs>
    <g id="Page-1" stroke="none" stroke-width="1" fill="none" fill-rule="evenodd">
        <g id="Hand" fill-rule="nonzero">
            <path d="M151.316259,32.2325581 C146.035278,26.9700997 138.113808,25.654485 131.512582,28.2857143 C131.512582,24.3388704 130.192337,20.3920266 126.231601,16.4451827 C123.591111,13.8139535 118.310131,11.1827243 111.708905,11.1827243 C107.748169,11.1827243 105.107679,12.4983389 102.467189,12.4983389 C102.467189,9.86710963 101.146944,8.55149502 99.8266986,5.92026578 C93.225473,-1.97342193 80.0230216,-1.97342193 73.4217959,5.92026578 C70.7813056,8.55149502 68.1408153,11.1827243 68.1408153,13.8139535 C65.5003251,13.8139535 62.8598348,12.4983389 60.2193445,12.4983389 C53.6181188,12.4983389 49.6573834,15.1295681 45.696648,19.076412 C39.0954223,25.654485 39.0954223,36.179402 39.0954223,36.179402 L39.0954223,86.1727575 C35.1346869,82.2259136 28.5334612,75.6478405 19.2917453,75.6478405 C16.651255,75.6478405 12.6905196,76.9634551 10.0500293,78.2790698 C4.76904876,80.910299 2.12855849,84.8571429 0.808313349,90.1196013 C-3.15242206,103.275748 8.72978417,121.694352 8.72978417,123.009967 C10.0500293,124.325581 24.5727258,158.531561 37.7751772,173.003322 C50.9776286,188.790698 65.5003251,198 102.467189,198 C140.754298,198 157.917485,176.950166 157.917485,130.903654 L157.917485,58.5448505 C157.917485,57.2292359 159.23773,41.4418605 151.316259,32.2325581 Z M78.7027764,26.9700997 C78.7027764,23.0232558 77.3825313,13.8139535 85.3040021,13.8139535 C91.9052278,13.8139535 91.9052278,20.3920266 91.9052278,26.9700997 L91.9052278,79.5946844 C91.9052278,83.5415282 94.5457181,86.1727575 98.5064535,86.1727575 C102.467189,86.1727575 105.107679,83.5415282 105.107679,79.5946844 L105.107679,29.6013289 C105.107679,29.6013289 105.107679,24.3388704 111.708905,24.3388704 C119.630376,24.3388704 118.310131,36.179402 118.310131,36.179402 L118.310131,79.5946844 C118.310131,83.5415282 120.950621,86.1727575 124.911356,86.1727575 C128.872092,86.1727575 131.512582,83.5415282 131.512582,79.5946844 L131.512582,48.0199336 C131.512582,46.7043189 131.512582,40.1262458 138.113808,40.1262458 C144.715033,40.1262458 144.715033,53.282392 144.715033,53.282392 L144.715033,130.903654 C144.715033,175.634551 127.551847,184.843854 102.467189,184.843854 C70.7813056,184.843854 58.8990994,178.265781 48.3371383,163.79402 C36.4549321,150.637874 20.6119904,116.431894 20.6119904,115.116279 C16.651255,111.169435 11.3702744,99.3289037 12.6905196,94.0664452 C12.6905196,92.7508306 14.0107647,91.4352159 15.3310099,90.1196013 C16.651255,90.1196013 17.9715001,88.8039867 17.9715001,88.8039867 C23.2524807,88.8039867 28.5334612,95.3820598 29.8537064,98.013289 L37.7751772,109.853821 C39.0954223,112.48505 43.0561577,113.800664 45.696648,112.48505 C50.9776286,112.48505 52.2978737,109.853821 52.2978737,107.222591 L52.2978737,38.8106312 C52.2978737,33.5481728 52.2978737,25.654485 58.8990994,25.654485 C64.1800799,25.654485 65.5003251,29.6013289 65.5003251,36.179402 L65.5003251,79.5946844 C65.5003251,83.5415282 68.1408153,86.1727575 72.1015508,86.1727575 C76.0622862,86.1727575 78.7027764,83.5415282 78.7027764,79.5946844 L78.7027764,26.9700997 Z" id="Shape" fill="#000000"></path>
            <path d="M110.288783,111 C103.272076,111 97.5918854,113.326975 94.0835322,118.479564 C90.575179,113.326975 84.8949881,111 79.0477327,111 C67.6873508,111 59,119.643052 59,130.945504 C59,147.73297 75.2052506,164.686649 94.0835322,172 C108.785203,167.179837 129,147.73297 129,130.945504 C129,119.643052 120.312649,111 110.288783,111 Z" id="Shape" fill="#FFFFFF"></path>
        </g>
    </g>
</svg>