<?xml version="1.0" encoding="UTF-8" standalone="no"?>
<svg width="175px" height="166px" viewBox="0 0 175 166" version="1.1" xmlns="http://www.w3.org/2000/svg" xmlns:xlink="http://www.w3.org/1999/xlink">
    <!-- Generator: Sketch 49.3 (51167) - http://www.bohemiancoding.com/sketch -->
    <title>Key</title>
    <desc>Created with Sketch.</desc>
    <defs></defs>
    <g id="Page-1" stroke="none" stroke-width="1" fill="none" fill-rule="evenodd">
        <g id="Artboard" transform="translate(-97.000000, -1174.000000)" fill="#000000" fill-rule="nonzero">
            <g id="Key" transform="translate(185.833784, 1251.833784) scale(-1, 1) rotate(-315.000000) translate(-185.833784, -1251.833784) translate(79.833784, 1205.333784)">
                <path d="M165.047428,0 C190.530751,0 211.260707,20.7561642 211.260707,46.2717036 C211.260707,71.787243 190.530751,92.5434072 165.047428,92.5434072 C141.812051,92.5434072 122.584025,75.2675362 119.3623,52.881947 L52.8151769,52.881947 L52.8151769,59.4921904 C52.8151769,63.142927 49.8594068,66.1024337 46.2132798,66.1024337 C42.5671527,66.1024337 39.6113826,63.142927 39.6113826,59.4921904 L39.6113826,52.881947 L26.4075884,52.881947 L26.4075884,72.7126771 C26.4075884,76.3634137 23.4518184,79.3229205 19.8056913,79.3229205 C16.1595642,79.3229205 13.2037942,76.3634137 13.2037942,72.7126771 L13.2037942,52.881947 L6.60189711,52.881947 C2.95577002,52.881947 -4.4408921e-16,49.9224402 0,46.2717036 C4.4408921e-16,42.620967 2.95577002,39.6614602 6.60189711,39.6614602 L119.3623,39.6614602 C122.584025,17.2758711 141.812051,0 165.047428,0 Z M165.047428,79.3229205 C183.248858,79.3229205 198.056913,64.4961446 198.056913,46.2717036 C198.056913,28.0472626 183.248858,13.2204867 165.047428,13.2204867 C146.845997,13.2204867 132.037942,28.0472626 132.037942,46.2717036 C132.037942,64.4961446 146.845997,79.3229205 165.047428,79.3229205 Z" id="Shape"></path>
            </g>
        </g>
    </g>
</svg>