<?xml version="1.0" encoding="UTF-8" standalone="no"?>
<svg width="147px" height="196px" viewBox="0 0 147 196" version="1.1" xmlns="http://www.w3.org/2000/svg" xmlns:xlink="http://www.w3.org/1999/xlink">
    <!-- Generator: Sketch 49.3 (51167) - http://www.bohemiancoding.com/sketch -->
    <title>Location</title>
    <desc>Created with Sketch.</desc>
    <defs></defs>
    <g id="Page-1" stroke="none" stroke-width="1" fill="none" fill-rule="evenodd">
        <g id="Artboard" transform="translate(-311.000000, -1162.000000)">
            <g id="Location" transform="translate(311.000000, 1162.000000)">
                <path d="M147,73.5003082 C147,126.959532 84.8082812,189.765546 82.1638125,192.413088 C77.3791386,197.195637 69.6239239,197.195637 64.83925,192.413088 C62.1917187,189.764014 0,126.959532 0,73.5003082 C-4.97120007e-15,32.9072089 32.9070709,7.45683137e-15 73.5,0 C114.092929,-7.45683137e-15 147,32.9072089 147,73.5003082 Z M73.5,110.250462 C93.7964646,110.250462 110.25,93.7968578 110.25,73.5003082 C110.25,53.2037585 93.7964646,36.7501541 73.5,36.7501541 C53.2035354,36.7501541 36.75,53.2037585 36.75,73.5003082 C36.7495939,83.2471795 40.6213273,92.594961 47.5133773,99.4870398 C54.4054272,106.379119 63.7531695,110.250868 73.5,110.250462 Z" id="Icons" fill="#000000" fill-rule="nonzero"></path>
                <path d="M74,111 C94.4345357,111 111,94.4345357 111,74 C111,53.5654643 94.4345357,37 74,37 C53.5654643,37 37,53.5654643 37,74 C36.9995911,83.8131355 40.8976629,93.2244678 47.8365975,100.163402 C54.7755322,107.102337 64.1868645,111.000409 74,111 Z" id="Icons-path-Copy" fill="#FFFFFF"></path>
                <path d="M74,111 C94.4345357,111 111,94.4345357 111,74 C111,53.5654643 94.4345357,37 74,37 C53.5654643,37 37,53.5654643 37,74 C36.9995911,83.8131355 40.8976629,93.2244678 47.8365975,100.163402 C54.7755322,107.102337 64.1868645,111.000409 74,111 Z" id="Icons-path-Copy-2" stroke="#FFCB05" stroke-width="20"></path>
            </g>
        </g>
    </g>
</svg>