<?xml version="1.0" encoding="UTF-8" standalone="no"?>
<svg width="198px" height="166px" viewBox="0 0 198 166" version="1.1" xmlns="http://www.w3.org/2000/svg" xmlns:xlink="http://www.w3.org/1999/xlink">
    <!-- Generator: Sketch 49.3 (51167) - http://www.bohemiancoding.com/sketch -->
    <title>Megaphone</title>
    <desc>Created with Sketch.</desc>
    <defs></defs>
    <g id="Page-1" stroke="none" stroke-width="1" fill="none" fill-rule="evenodd">
        <g id="Megaphone">
            <path d="M90.75,115.96729 L41.25,115.96729 C18.975,115.96729 0,97.7641745 0,74.5965732 C0,51.428972 18.15,33.2258567 41.25,33.2258567 L90.75,33.2258567 C95.7,33.2258567 99,36.535514 99,41.5 L99,107.693146 C99,112.657632 95.7,115.96729 90.75,115.96729 Z M41.25,49.7741433 C28.05,49.7741433 16.5,60.5305296 16.5,74.5965732 C16.5,88.6626168 27.225,99.4190031 41.25,99.4190031 L82.5,99.4190031 L82.5,49.7741433 L41.25,49.7741433 Z" id="Shape" fill="#000000" fill-rule="nonzero"></path>
            <rect id="Rectangle-2" fill="#FFFFFF" x="138" y="23" width="22" height="104"></rect>
            <path d="M189.75,149.063863 C188.925,149.063863 188.1,149.063863 187.275,148.236449 L88.275,115.139875 C84.975,114.312461 82.5,111.002804 82.5,107.693146 L82.5,41.5 C82.5,38.1903427 84.975,34.8806854 88.275,34.053271 L187.275,0.956697819 C189.75,-0.698130841 192.225,0.129283489 194.7,1.78411215 C196.35,3.43894081 198,5.9211838 198,8.40342679 L198,140.78972 C198,143.271963 196.35,145.754206 194.7,147.409034 C193.05,148.236449 191.4,149.063863 189.75,149.063863 Z M99,101.901246 L181.5,129.205919 L181.5,19.9872274 L99,47.2919003 L99,101.901246 Z" id="Shape" fill="#000000" fill-rule="nonzero"></path>
            <path d="M66,165.61215 L33,165.61215 C30.525,165.61215 28.05,163.957321 26.4,162.302492 C24.75,159.820249 23.925,157.338006 25.575,154.855763 L42.075,105.210903 C42.9,101.901246 46.2,99.4190031 49.5,99.4190031 L82.5,99.4190031 C84.975,99.4190031 87.45,101.073832 89.1,102.72866 C90.75,105.210903 90.75,107.693146 89.925,110.175389 L73.425,159.820249 C72.6,163.129907 69.3,165.61215 66,165.61215 Z M44.55,149.063863 L60.225,149.063863 L70.95,115.96729 L55.275,115.96729 L44.55,149.063863 Z" id="Shape" fill="#000000" fill-rule="nonzero"></path>
        </g>
    </g>
</svg>