<?xml version="1.0" encoding="UTF-8" standalone="no"?>
<svg width="167px" height="197px" viewBox="0 0 167 197" version="1.1" xmlns="http://www.w3.org/2000/svg" xmlns:xlink="http://www.w3.org/1999/xlink">
    <!-- Generator: Sketch 49.3 (51167) - http://www.bohemiancoding.com/sketch -->
    <title>Group</title>
    <desc>Created with Sketch.</desc>
    <defs></defs>
    <g id="Page-1" stroke="none" stroke-width="1" fill="none" fill-rule="evenodd">
        <g id="Group" fill-rule="nonzero">
            <path d="M82.1976077,84 C82.1976077,84 23.0412742,71.0746863 37.1846803,0 C37.1846803,0 94.6987871,11.6313284 94.8796491,51.6867157 C94.8796491,51.6867157 108.16577,20.6783211 127.97739,21.9686716 C127.97739,21.9686716 146.497656,49.1060147 104.060203,84" id="Shape" fill="#FFFFFF"></path>
            <path d="M153.844681,87.3053704 L13.1555517,87.3053704 L26.8791314,184.69463 L140.124317,184.69463 L153.844681,87.3053704 Z M145.431783,197 L21.5718402,197 C18.5272994,197 15.9468101,194.745169 15.5192911,191.711284 L0.0617035332,82.0166546 C-0.46033428,78.312018 2.39660436,75 6.11425265,75 L160.885748,75 C164.603316,75 167.460232,78.3118823 166.938325,82.0164561 L151.48436,191.711086 C151.056929,194.74506 148.476399,197 145.431783,197 Z" id="Shape" fill="#000000"></path>
        </g>
    </g>
</svg>